<?xml version="1.0" standalone="no"?>
<!DOCTYPE svg PUBLIC "-//W3C//DTD SVG 20010904//EN"
 "http://www.w3.org/TR/2001/REC-SVG-20010904/DTD/svg10.dtd">
<svg version="1.0" xmlns="http://www.w3.org/2000/svg"
 width="800.000000pt" height="800.000000pt" viewBox="0 0 800.000000 800.000000"
 preserveAspectRatio="xMidYMid meet">
<metadata>
Created by potrace 1.14, written by Peter Selinger 2001-2017
</metadata>
<g transform="translate(0.000000,800.000000) scale(0.100000,-0.100000)"
fill="#000000" stroke="none">
<path d="M5905 7319 c-22 -4 -89 -15 -150 -24 -158 -25 -434 -99 -534 -143
-20 -9 -40 -17 -46 -18 -5 0 -23 -6 -38 -12 -16 -7 -33 -12 -38 -12 -5 0 -9
-4 -9 -10 0 -5 -6 -10 -13 -10 -18 0 -241 -110 -249 -124 -4 -6 -8 -7 -8 -2 0
5 -8 2 -17 -6 -10 -8 -49 -37 -88 -63 -38 -26 -61 -45 -50 -41 11 4 37 13 58
19 20 7 37 15 37 19 0 5 8 8 18 8 10 0 26 6 37 14 11 7 37 16 58 20 20 4 37
11 37 17 0 6 4 7 10 4 5 -3 20 -1 32 6 12 7 43 18 68 25 25 7 77 22 115 34
116 34 334 72 438 76 53 2 110 4 125 5 78 3 236 -13 306 -31 174 -45 314 -141
373 -256 35 -67 59 -177 49 -227 -3 -18 -9 -54 -12 -82 -7 -58 -44 -162 -77
-214 -12 -20 -21 -39 -19 -43 1 -5 -3 -8 -8 -8 -6 0 -10 -5 -10 -10 0 -6 -4
-16 -10 -23 -124 -154 -195 -229 -286 -303 -27 -21 -56 -46 -65 -54 -32 -28
-45 -37 -67 -49 -19 -10 -24 -8 -39 16 -32 50 -56 77 -153 173 -78 78 -111
103 -182 138 -47 23 -88 42 -91 42 -2 0 -22 8 -43 17 -47 20 -59 23 -104 29
-19 2 -57 8 -85 13 -93 17 -253 5 -437 -34 -27 -5 -571 -180 -598 -192 -8 -3
-18 -6 -22 -5 -3 1 -55 -10 -115 -23 -59 -13 -128 -27 -153 -30 -25 -3 -56 -8
-70 -10 -14 -3 -74 -7 -134 -10 -113 -4 -136 -10 -92 -21 14 -3 26 -10 26 -15
0 -5 3 -8 8 -7 4 1 23 -5 42 -14 88 -40 224 -95 323 -129 60 -20 111 -40 114
-43 4 -3 14 -6 24 -6 10 0 30 -5 46 -11 15 -7 35 -13 43 -14 8 -1 63 -14 122
-29 59 -14 116 -26 126 -26 10 0 22 -3 25 -6 4 -4 21 -9 39 -11 18 -2 44 -6
58 -7 14 -2 32 -4 40 -5 35 -4 -89 -54 -165 -67 -22 -3 -49 -8 -60 -10 -11 -3
-70 -4 -131 -5 -118 0 -216 12 -280 34 -22 8 -44 12 -50 10 -18 -6 -275 82
-357 122 -40 19 -77 35 -83 35 -17 0 -188 82 -192 92 -2 4 -8 6 -13 2 -5 -3
-9 0 -9 5 0 6 -6 11 -14 11 -8 0 -38 11 -67 24 -29 14 -56 23 -61 20 -4 -3 -8
0 -8 5 0 6 -5 11 -11 11 -6 0 -37 13 -68 29 -53 27 -277 107 -322 116 -11 2
-28 6 -37 9 -9 3 -28 8 -42 10 -14 3 -44 10 -68 16 -24 6 -47 8 -53 5 -5 -4
-9 -2 -9 3 0 8 -121 6 -163 -2 -9 -2 -17 0 -17 6 0 6 -8 7 -17 3 -10 -4 -52
-15 -93 -25 -147 -34 -246 -75 -342 -143 -33 -23 -70 -48 -82 -54 -11 -7 -18
-13 -13 -13 4 0 -12 -17 -35 -37 -24 -21 -44 -41 -46 -45 -2 -3 -12 -17 -23
-30 -11 -12 -28 -32 -37 -43 -10 -11 -28 -38 -42 -60 -13 -22 -27 -42 -31 -45
-20 -15 -142 -277 -154 -331 -4 -18 -11 -40 -16 -49 -17 -32 -69 -244 -84
-350 -4 -24 -11 -52 -16 -62 -6 -10 -5 -19 1 -23 6 -4 7 -13 2 -23 -5 -9 -10
-37 -11 -61 -2 -24 -5 -54 -8 -65 -9 -40 -11 -502 -2 -596 4 -52 11 -140 14
-194 3 -55 9 -104 13 -108 11 -11 51 5 78 30 25 24 152 109 204 138 19 10 37
22 40 25 3 3 36 22 74 43 38 20 75 41 82 47 8 6 14 8 14 4 0 -5 8 -1 18 7 21
18 217 108 235 108 7 0 17 4 22 8 11 9 176 60 210 65 11 1 25 5 30 9 35 21
341 45 383 30 19 -7 14 -22 -8 -22 -11 0 -20 -4 -20 -8 0 -5 -19 -13 -42 -19
-118 -30 -465 -179 -476 -205 -2 -4 -12 -8 -22 -8 -10 0 -20 -4 -22 -8 -1 -4
-40 -30 -86 -56 -46 -27 -90 -55 -98 -63 -8 -8 -14 -12 -14 -8 0 3 -6 1 -12
-5 -37 -31 -92 -70 -97 -70 -4 0 -16 -8 -27 -17 -10 -10 -42 -36 -69 -57 -28
-22 -56 -46 -62 -55 -7 -8 -13 -11 -13 -7 0 14 -304 -294 -355 -360 -27 -36
-57 -73 -66 -82 -17 -18 -106 -154 -160 -242 -83 -135 -152 -308 -189 -470 -7
-30 -15 -62 -18 -70 -6 -20 -9 -252 -2 -265 2 -5 14 -49 26 -96 15 -62 34
-108 67 -160 57 -92 160 -197 226 -231 14 -7 28 -16 31 -19 8 -9 68 -39 79
-39 5 0 20 -4 33 -9 13 -5 26 -9 30 -10 4 -1 26 -8 48 -16 24 -9 38 -10 34 -4
-4 7 2 7 16 -1 24 -13 282 -12 310 1 8 4 23 10 34 13 16 6 14 11 -18 46 -20
22 -36 47 -36 55 0 8 -4 15 -8 15 -10 0 -51 91 -49 110 0 3 -5 14 -11 25 -24
46 -34 213 -19 325 8 58 49 181 73 217 8 13 12 23 9 23 -3 0 6 18 20 40 14 22
25 42 25 45 0 10 72 120 84 127 6 5 7 8 1 8 -7 0 -7 3 0 8 6 4 35 39 66 77 31
39 71 86 89 105 94 102 132 140 135 140 3 0 17 13 32 28 16 16 55 50 88 77 33
26 77 63 97 81 20 19 42 34 48 34 5 0 10 4 10 9 0 5 8 12 18 15 10 4 32 19 48
34 38 37 391 269 403 265 3 -1 15 6 26 16 11 10 36 27 55 36 19 10 38 23 42
29 4 6 8 7 8 3 0 -5 12 0 28 11 15 10 79 47 142 82 63 35 146 81 184 102 38
21 72 38 76 38 4 0 18 9 32 19 14 11 74 46 134 77 60 32 111 61 114 64 4 6 27
19 150 88 19 10 90 51 157 91 68 39 127 71 132 71 5 0 16 6 23 14 8 7 29 22
47 32 19 11 41 24 50 29 9 6 34 21 56 34 22 14 43 30 47 35 4 6 8 8 8 3 0 -4
22 7 49 25 27 18 86 56 131 83 45 28 87 55 94 61 7 6 22 15 34 18 12 4 22 11
22 15 0 5 14 14 30 21 17 7 30 17 30 22 0 5 4 7 8 4 5 -3 18 2 28 12 10 10 44
33 74 52 30 19 57 37 60 40 3 3 37 25 75 50 39 25 72 47 75 50 3 3 35 25 73
50 37 24 67 48 67 52 0 5 4 7 9 3 6 -3 13 0 18 8 4 7 37 32 73 56 36 24 67 47
70 51 3 3 21 17 40 30 19 14 40 28 45 32 52 41 171 132 219 167 32 24 66 51
75 60 20 19 131 116 180 157 44 37 343 334 397 394 22 25 55 65 74 90 19 24
43 53 52 64 10 11 30 38 45 60 15 23 30 43 33 46 15 14 110 174 142 240 50
101 106 275 116 358 12 106 5 230 -17 270 -5 9 -10 22 -11 27 -6 28 -46 92
-82 131 -65 70 -204 143 -305 159 -15 3 -50 10 -78 15 -59 13 -353 19 -410 9z"/>
<path d="M7149 6484 c-1 -34 -6 -78 -12 -109 -3 -16 -7 -50 -8 -75 -1 -25 -5
-49 -8 -55 -3 -5 -6 -14 -7 -20 -6 -35 -49 -185 -61 -207 -7 -16 -11 -28 -9
-28 5 0 -29 -88 -66 -170 -42 -95 -102 -208 -144 -271 -24 -37 -44 -71 -44
-77 0 -6 -11 -23 -25 -38 -14 -15 -25 -33 -25 -40 0 -8 -4 -14 -10 -14 -5 0
-10 -7 -10 -15 0 -7 -6 -18 -13 -22 -7 -4 -21 -25 -32 -45 -10 -20 -22 -35
-26 -33 -4 3 -12 -9 -19 -25 -7 -17 -17 -30 -22 -30 -5 0 -7 -4 -4 -9 3 -5 -1
-12 -10 -15 -8 -3 -13 -10 -9 -15 3 -6 0 -13 -7 -18 -7 -4 -32 -33 -55 -63
-23 -30 -67 -82 -97 -114 -31 -33 -56 -61 -56 -63 0 -6 -159 -162 -234 -228
-101 -90 -111 -99 -136 -115 -38 -25 -84 -64 -98 -82 -7 -10 -18 -18 -24 -18
-10 0 -62 -39 -119 -91 -46 -42 -74 -63 -76 -59 -3 8 -123 -80 -123 -90 0 -6
-6 -10 -12 -10 -7 0 -26 -11 -42 -25 -16 -13 -37 -27 -47 -30 -11 -4 -19 -10
-19 -15 0 -5 -9 -12 -20 -15 -11 -3 -26 -12 -32 -18 -7 -7 -38 -28 -68 -47
-30 -19 -61 -40 -68 -47 -6 -6 -21 -15 -32 -18 -11 -3 -20 -11 -20 -16 0 -5
-5 -9 -11 -9 -5 0 -37 -18 -69 -40 -32 -22 -64 -40 -69 -40 -6 0 -11 -4 -11
-10 0 -5 -6 -10 -14 -10 -8 0 -16 -3 -18 -7 -1 -5 -21 -17 -43 -28 -22 -11
-46 -25 -53 -32 -6 -6 -47 -33 -90 -60 -42 -26 -78 -51 -80 -55 -2 -5 -9 -8
-16 -8 -6 0 -21 -7 -31 -15 -41 -31 -96 -65 -106 -65 -6 0 -46 -25 -89 -55
-43 -30 -82 -55 -88 -55 -5 0 -15 -7 -22 -15 -7 -8 -21 -15 -31 -15 -11 0 -19
-3 -19 -7 0 -9 -56 -48 -67 -47 -5 0 -19 -10 -32 -23 -14 -12 -39 -28 -55 -35
-17 -6 -33 -15 -36 -18 -7 -8 -131 -90 -136 -90 -3 0 -41 -25 -85 -55 -44 -30
-84 -55 -90 -55 -5 0 -9 -3 -9 -8 0 -4 -17 -16 -37 -27 -21 -11 -48 -28 -60
-39 -12 -10 -30 -24 -41 -30 -45 -26 -108 -69 -117 -80 -5 -6 -47 -36 -92 -65
-46 -30 -83 -57 -83 -61 0 -4 -13 -13 -30 -20 -16 -7 -30 -15 -30 -19 0 -4
-15 -15 -32 -26 -46 -27 -195 -144 -226 -177 -9 -10 -21 -18 -27 -18 -5 0 -33
-22 -61 -48 -28 -26 -66 -58 -84 -72 -67 -53 -87 -71 -175 -159 -33 -34 -63
-61 -67 -61 -5 0 -8 -7 -8 -16 0 -8 -4 -12 -10 -9 -5 3 -10 -2 -10 -11 0 -10
-3 -15 -6 -12 -5 6 -123 -113 -173 -173 -14 -18 -33 -40 -41 -49 -8 -8 -33
-38 -55 -65 -22 -28 -46 -56 -52 -63 -7 -7 -13 -17 -13 -21 0 -4 -16 -22 -35
-41 -19 -19 -35 -40 -35 -47 0 -6 -3 -13 -7 -15 -12 -5 -73 -95 -73 -107 0 -6
-4 -11 -8 -11 -5 0 -16 -15 -24 -34 -16 -33 -14 -76 3 -76 5 0 9 -6 9 -14 0
-7 11 -25 25 -40 14 -15 25 -31 25 -37 0 -5 4 -9 9 -9 5 0 12 -8 16 -19 3 -10
23 -38 45 -61 22 -24 40 -47 40 -52 0 -5 5 -6 10 -3 5 3 10 0 10 -9 0 -8 3
-16 8 -18 6 -2 52 -57 112 -132 51 -64 183 -176 312 -264 52 -36 197 -110 225
-115 10 -2 25 -7 33 -10 25 -10 163 -36 170 -32 4 2 20 6 36 9 16 3 30 10 32
16 2 5 9 10 15 10 14 0 67 61 67 78 0 6 4 12 9 12 5 0 23 42 41 93 18 50 34
99 37 107 3 8 7 27 9 42 1 16 8 44 14 64 7 20 14 53 17 73 6 47 11 76 13 76 1
0 3 14 6 30 2 17 8 55 14 85 5 30 12 75 15 100 4 42 10 84 21 155 3 17 9 46
13 65 5 19 9 42 9 50 0 24 28 177 46 250 4 14 9 41 12 60 3 19 8 38 11 43 2 4
6 20 9 35 6 34 39 131 67 197 53 127 133 220 212 251 54 20 133 16 190 -11 42
-21 145 -121 145 -142 0 -7 4 -13 9 -13 12 0 91 -161 91 -186 0 -11 4 -24 9
-29 6 -6 12 -22 15 -37 2 -14 9 -35 15 -46 6 -11 12 -35 15 -54 2 -18 11 -50
19 -71 9 -20 14 -37 12 -37 -2 0 4 -24 15 -54 16 -47 32 -131 33 -173 0 -7 4
-13 8 -13 9 0 42 -155 42 -200 0 -8 4 -20 8 -26 5 -6 10 -32 11 -57 2 -26 6
-47 11 -47 4 0 7 -9 7 -21 0 -11 5 -29 10 -39 6 -11 17 -52 25 -92 18 -88 19
-90 27 -103 4 -6 17 -40 29 -75 12 -36 26 -76 32 -90 6 -14 11 -27 11 -30 4
-17 53 -103 68 -120 10 -10 18 -23 18 -28 0 -15 71 -73 110 -90 19 -8 47 -15
61 -15 37 0 100 23 94 34 -4 5 0 9 7 9 34 0 159 140 214 240 10 19 21 37 24
40 11 11 81 155 80 164 -1 5 2 12 7 15 8 6 68 124 65 128 -1 2 10 29 24 60 14
32 39 99 55 148 16 50 33 99 38 110 9 18 110 326 116 350 7 32 20 82 46 175
16 58 31 114 33 125 2 11 12 49 21 85 19 73 17 62 45 189 11 52 23 99 27 104
3 5 7 23 8 40 2 18 6 44 9 60 3 15 8 37 10 50 3 12 10 38 15 57 6 19 11 49 11
66 0 17 3 34 7 37 6 7 15 60 17 105 1 12 5 22 10 22 5 0 7 2 4 5 -3 3 3 47 13
98 11 50 21 113 24 138 2 26 9 66 14 90 5 24 8 46 5 50 -2 4 0 9 6 11 5 2 6 9
1 16 -6 10 -27 0 -85 -42 -42 -30 -85 -58 -96 -61 -11 -4 -20 -11 -20 -16 0
-5 -4 -9 -9 -9 -5 0 -58 -29 -117 -63 -166 -97 -209 -121 -214 -122 -17 -4
-80 -40 -80 -47 0 -4 -6 -8 -13 -8 -12 0 -50 -19 -165 -81 -29 -16 -59 -29
-67 -29 -7 0 -15 -3 -17 -8 -4 -8 -292 -152 -305 -152 -5 0 -38 -14 -72 -30
-68 -33 -87 -34 -49 -1 12 11 37 32 53 46 17 15 53 45 80 67 56 45 176 152
242 214 24 23 43 40 43 37 0 -2 13 8 28 24 16 15 67 62 113 104 124 113 561
539 552 539 -2 0 25 29 59 64 35 35 95 99 133 141 39 43 75 83 80 89 13 14
143 164 175 202 20 24 183 227 208 259 45 58 155 210 178 245 16 25 31 47 34
50 3 3 27 39 53 80 25 41 50 80 55 85 4 6 30 48 56 95 27 47 53 87 58 88 4 2
5 8 2 14 -4 6 -2 13 4 17 9 6 132 250 138 276 2 6 20 55 42 110 53 136 96 307
109 431 8 75 8 241 0 289 -3 17 -8 47 -11 69 -6 43 -16 60 -17 30z"/>
</g>
</svg>
