<?xml version="1.0" encoding="utf-8"?>
<!-- Generator: Adobe Illustrator 26.0.1, SVG Export Plug-In . SVG Version: 6.00 Build 0)  -->
<svg version="1.1" id="Слой_1" xmlns="http://www.w3.org/2000/svg" xmlns:xlink="http://www.w3.org/1999/xlink" x="0px" y="0px"
	 viewBox="0 0 200 71" style="enable-background:new 0 0 200 71;" xml:space="preserve">
<style type="text/css">
	.st0{fill:#FEFEFE;}
	.st1{fill:#2D2B2A;}
	.st2{fill:#2D2C2B;}
	.st3{fill:#2C2B2A;}
	.st4{fill:#bfd2f8;}
	.st5{fill:#159eec;}
	.st6{fill:#1F2B6C;}
	.st7{fill:#FBFCFB;}
	.st8{fill:#1F2B6C;}
	.st9{fill:#FBFBFB;}
	.st10{fill:#F7F6F6;}
	.st11{fill:#F2F4F2;}
	.st12{fill:#F5F6F5;}
</style>
<g>
	<g>
		<path class="st0" d="M0.1,49.9C0.1,34.3,0.1,18.7,0,3.1C0,0.6,0.6,0,3.1,0c64.6,0.1,129.2,0.1,193.8,0c2.5,0,3.1,0.6,3.1,3.1
			c-0.2,10.3-0.1,20.6-0.1,30.9c-2,0.7-4-0.2-5.8-0.6c-8.6-2.1-20.3,5.5-21.6,14.3c-0.6,3.9,1.8,6.1,5.6,5.1c1.8-0.5,3.3-1.5,5-2.2
			c0.9-0.4,1.9-1.1,2.8-0.3c1.1,1,0.4,2.2-0.1,3.2c-1.4,2.8-3.3,5.4-4.7,8.2c-0.5,1-1.1,2-1.4,3.2c-0.2,0.7-0.1,1.4,0.6,1.7
			c0.7,0.3,1.3,0,1.7-0.6c0.8-1,1.3-2.3,1.9-3.5c4.1-8.2,8-16.4,12.7-24.3c0.8-1.3,1-3.3,3.3-3c0,10.6-0.2,21.2,0.1,31.9
			c0.1,3.3-0.5,4.2-4,4.2c-55.8-0.2-111.7-0.1-167.5-0.1c-8.6,0-17.3-0.1-25.9,0.1c-2.2,0-2.6-0.5-2.5-2.6
			c0.2-5.1,0.1-10.3,0.1-15.4c3.1,0.1,6.2,0.2,9.1-1.3c1.4-0.7,2.9-0.3,4.3,0.2c10,3,18,0.2,24-8.4c1.3-1.9,2.1-4.2,4.3-5.3
			c1.9-0.4,3.8-1.8,5.5,0.3c0.5,3.6-2.4,6.1-3.1,9.3c-0.4,1.6-1.6,3.3,0.1,4.6c1.7,1.3,3.1-0.3,4.5-1.1c1-0.6,1.9-1.4,2.8-2.1
			c2.5-2,4.7-3.1,5.4,1.6c0.3,2.4,2,2.4,3.7,1.8c1.6-0.5,3.1-1.1,4.7-2.9c-3.3,0.1-5.1-1.2-3.7-4.3c1.9-4.2,3.4-8.7,6.7-12.1
			c2.6-1.3,5.3-2,8.2-0.9c2.4,2.3,0.3,4.3-0.5,6.3c-1.8,4.1-4.2,7.9-5.8,12.1c-0.2,0.5-0.2,1,0.6,1.7c2.7-1.1,4.2-3.7,6-5.9
			c2.1-2.6,4.3-5.1,6.9-7.1c0.9-0.7,2-1.3,3.2-0.4c1.1,0.8,1,2.1,0.6,3.2c-0.7,2.2-2.2,4.1-2.8,6.4c-0.3,1.3-0.9,2.6,0.2,3.8
			c1.2,1.2,2.5,0.6,3.7,0c3.2-1.7,6.1-3.8,9.4,0.5c1.6,2.1,4.8,0.7,7-0.5c4-2.1,7.4-5,10.7-8.1c1.1-1.1,2.4-2.9,4.1-1.9
			c1.6,0.9,0.3,2.7,0,4.1c-0.2,0.8-0.4,1.6-0.5,2.4c-0.3,4.1,1.5,5.3,5.1,3.5c1.5-0.7,2.8-1.8,4-3c1.7-1.6,3.2-3.4,5-4.9
			c1.3-1.1,2.6-3.4,4.5-2.1c1.6,1.2-0.2,3-0.6,4.5c-0.6,1.9-1.3,4,0.4,5.6c1.8,1.7,4,0.8,5.5-0.3c3.7-2.7,6.6-2.7,10.5,0.2
			c3.7,2.8,7.9-0.3,11.8-1.8c-2.5,0.5-5,0.9-7.6,0.4c-1.2-0.2-2.3-0.7-2.5-2.1c-0.2-1.3,0.4-2.2,1.5-2.9c1.5-1,3.3-1.5,5.1-2.1
			c3.2-1.1,6.1-2.7,8.2-5.4c1.1-1.3,1.9-2.9,0.9-4.6c-1-1.7-2.8-1.7-4.5-1.4c-5.9,1.2-10.2,4.7-13.2,9.8c-1.8,3.1-3.8,5.9-7.2,7.4
			c-1.5,0.7-3.1,1.5-4.7,0.2c-1.7-1.4-1.5-3.3-0.9-5c2.7-7,6.3-13.5,9.9-20.1c1.1-2,4.9-4.7,1.7-6.5c-2.6-1.5-3.3,2.9-4.3,4.8
			c-4.8,8.8-10.6,16.9-18.2,23.5c-1.7,1.5-3.2,4.1-5.9,2.4c-2.8-1.9-1.1-4.6-0.1-6.7c3.4-7.2,6.9-14.4,10.7-21.4
			c0.5-0.9,1.1-1.7,1.5-2.6c0.5-1.1,1-2.4-0.2-3.1c-1.5-0.9-2.1,0.5-2.6,1.5c-1.4,2.8-3,5.5-4.7,8.2c-2.9,4.8-6.1,9.5-9.6,14
			c-1.2,1.6-2.4,3.2-4.5,3.7c-2-0.1-2.7-1.7-3.9-2.9c-1.4-2.3-4.8-3.3-4.5-6.8c2.2-1.4,3.6-0.1,5.1,1.7c-1.7-2.5-4-3.9-5.6-6
			c-0.8-1.1-2.9-2.2-0.9-4c1.6-0.4,2.9,0.4,3.4,0.8c-6.7-8.6-16.8-12.2-28-12.6c-9.9-0.3-19.4,2.2-28.7,5.6c-2.9,1.1-5.6,3.1-9,2.4
			c-3.6-2-6-5.7-10.2-7c-4.7-1.5-14.5,2.1-16.6,6.3c-0.4,0.8-0.6,1.6,0.2,2.2c0.6,0.5,1.3,0.3,1.8-0.1c1.2-0.9,2.2-2,3.2-3.1
			c3.4-3.7,7.6-4,11.9-2.6c4.4,1.5,6.2,5.2,6.6,9.7C40,37,34.6,44.5,25.9,50.1c-1.4,0.9-3.1,1.3-4.7,1.6c-2.2,0.4-4.6,0.3-6-1.6
			c-1.7-2.2,0.6-3.6,1.8-5.1c5.1-6.4,7.9-14.1,13.2-21.5c-3.4,0.4-4.2,2.2-5.4,3.7c-3.2,4.1-5.7,8.6-7.8,13.3
			C13.7,48.1,7.1,49.3,0.1,49.9z"/>
		<path class="st1" d="M42,38.9c-3,4.8-6,9.4-10.9,12.5c-2.5,1.6-5.2,3.1-8.2,3.3C16.3,55.1,9.7,50.9,3,54.4c-0.6,0.3-1.9-1-2.9-1.5
			c0-1,0-2,0-3c3-1.4,5.9-2.9,9.4-2.9c2.7,0.1,3.5-2.3,4.5-4.1c4.1-6.6,7.1-13.9,12.3-19.8c1.3-1.5,2.3-2.9,4.4-1.3
			c0.8,0.6,1.8,1,0.8,2.2c-6.4,7.7-9.1,17.7-16.4,25.1c3.5,1.9,6.8,1.9,9.9,0.1c7.6-4.4,12.4-10.9,13.3-19.8
			c0.6-6-1.7-10.4-5.8-12.1c-4.4-1.8-9.1-0.3-13,4.6c-1.6,2-2.7,4.2-5.6,1.3c-1.2-1.2-1.5-1.7-0.3-3C22.2,10,33.8,7.9,42.4,20.4
			c2.5,1.6,2.6,4.3,2.9,6.9c0.1,1.8,0,3.6-0.4,5.4C44.3,34.9,44.1,37.4,42,38.9z"/>
		<path class="st2" d="M199.9,35c-6.2,9.7-11.3,20.1-16,30.6c-1.4,3.3-3.1,3.2-5.5,2c-3.2-1.5-0.3-3.1,0.3-4.3
			c2.2-4.4,4.7-8.5,6.9-13.1c-2.2,1.2-4.2,2.8-6.5,3.6c-2.5,0.8-4.9,1-7-1c-1.9-1.9-1.5-4.3-0.8-6.5c3.7-12.3,17-18,28.5-12.4
			C199.9,34.3,199.9,34.6,199.9,35z"/>
		<path class="st3" d="M114.2,42.1c7.9-7.6,12.8-17.2,18.1-26.5c0.9-1.5,0.9-4,4-2.2c2.7,1.5,2.2,2.7,1,4.9
			c-3.7,6.6-7.2,13.4-10.7,20.2c-0.9,1.8-1.8,3.5-2.4,5.4c-0.5,1.5-1.8,3.5-0.2,4.6c1.7,1.2,2.9-0.8,4.1-1.8c9.1-8,15.6-18,21-28.7
			c1.2-2.4,2.2-3,4.8-1.3c1.9,1.3,1.9,2,0.8,3.7c-3.8,6.8-7.6,13.6-11.2,20.4c-1,1.9-1.8,3.9-2.3,6c-0.5,2.2,0.6,3.3,2.8,2.4
			c2.9-1.2,5.6-2.6,7.1-5.8c2.9-5.9,7.7-10,13.9-12.1c2.6-0.9,5.9-1.5,7.7,1.5c1.7,2.9-0.2,5.4-2.2,7.5c-3.2,3.4-7.6,4.6-11.8,6
			c-1.1,0.3-3.1,0.1-2.8,2.1c0.3,1.9,2.2,1.8,3.6,1.8c3.2,0,6-1.5,8.8-2.5c1.2,1.3,0.6,2.2-0.1,2.9c-5,4.6-13.2,4.7-18,0
			c-1.4-1.4-2-0.3-2.8,0.2c-3.3,2-6.6,6.2-10.5,2.9c-3.9-3.3-0.6-7.3,1.1-10.8c0.1-0.2-0.1-0.6-0.2-1.1c-3.6,3.6-6.7,7.6-10.7,10.5
			c-2.3,1.6-4.6,3.9-7.6,1.7c-2.6-2-1.4-4.9-0.8-7.4c0.3-1.4,1-2.7,1.2-4.4c-3.9,2.9-7,6.7-11.1,9.3c-2.1,1.3-4.2,2.8-6.7,3.2
			c-3.4,0.5-6.5,0.1-7.2-4.4c-2,1.1-3.8,2.2-5.7,3.1c-1.8,0.9-3.7,1.8-5.5,0.1c-1.8-1.7-0.9-3.8-0.2-5.6c1.2-2.8,2.7-5.6,4.4-9.2
			c-3.7,0.9-5.1,3.2-6.7,5c-2.8,3.1-5.5,6.2-8.1,9.5c-1.4,1.7-2.8,1.5-4.3,0.6c-1.9-1.1-0.3-2.2,0.2-3.3c2.7-5.8,5.4-11.6,8.1-17.5
			c2-4.5,3.1-4.6,6.5-0.6c-0.2,2.2-1.2,4-3.3,6.6c3-3.4,5.2-6,8.6-7c2.4-0.5,4.5-0.1,5.8,2.3c2,4.8-2.8,7.8-3.4,12
			c2.3-0.1,3.4-1.6,4.8-2.7c3.4-2.8,6.5-2,7.3,2.2c0.5,3,1.7,2.1,3.3,1.4C109.4,46.1,110.9,42.8,114.2,42.1z"/>
		<path class="st4" d="M44.2,26.9c-0.6-2.1-1.2-4.3-1.8-6.4c10.4-4.3,21-8.2,32.4-8.9C87.9,10.7,99.5,14,108.6,24
			c1.1,1.2,2.9,2.3,2.4,4.7c-2.6-1.5-5-3-7.5-4.4c-2.1,0.9-4.3,0.2-6.3-0.2c-15.6-3.1-30.9-0.8-46.2,2.4
			C48.7,26.8,46.5,28,44.2,26.9z"/>
		<path class="st5" d="M44.2,26.9c18.2-5.3,36.7-7.8,55.6-3.8c1.3,0.3,2.5,0.8,3.7,1.2c2.7,4.2,7.4,6.9,9.6,12.6
			c-2.6-1.7-4-4.4-6.9-3.9c-4.9-0.7-9.4-3-14.4-3.7c-12.4-1.7-24.5,0.4-36.6,2c-1.3,0.1-2.6,0.4-3.8,0.8c-2.4,0.4-4.7,2-7.3,0.7
			C44.1,30.8,44.1,28.9,44.2,26.9z"/>
		<path class="st2" d="M51,31.1c0.8-0.8,1.8-1.2,3-0.7c5.1,1.1,1.7,3.8,1.2,6c-1.5,2.8-2.8,5.6-4,8.6C55,42,58.3,38.6,61.5,35
			c1.9-2,3.7-4.8,6.6-1c-0.6,4-3.3,7.1-4.8,10.7c-0.5,1.2-2.3,2.7-0.9,3.9c1.3,1.2,2.6-0.7,3.9-1.2c0.4-0.2,0.9-0.3,1.4-0.5
			c-0.7,3.8-5.8,7.9-9.3,7.5c-4.3-0.5-2.1-4-2.5-6.8c-2.6,2-4.9,3.8-7.2,5.4c-1.6,1.1-3.5,2.3-5.5,0.8c-2-1.5-1.2-3.6-0.4-5.4
			c1.5-3.3,3.2-6.5,4.7-9.8C46.9,35.3,49.1,33.3,51,31.1z"/>
		<path class="st6" d="M54.2,36c0.5-1.9,3.3-3.9-0.2-5.6c14.2-2.8,28.5-4.4,43-1.7c3.5,0.7,6.6,1.9,9.2,4.3c1.7,2,3.5,4,5.2,6
			c-0.7,2.3-2.3,1.6-3.5,0.9c-4.4-2.7-9.4-3.5-14.2-5.1c-1.4-2.5-3.7-1.9-5.9-1.6c-1.7,0.4-3.4,1.4-4.9-0.3c-2.2-3.4-4.1-2.6-6,0.3
			C74,33.4,71,33.7,68,34c-2.6-1.7-4.4-0.8-5.7,1.8C59.6,36,57,37.8,54.2,36z"/>
		<path class="st7" d="M93.7,34.8c5.2-0.9,9.5,1.4,13.9,3.5c1.1,0.5,2.1,3,3.8,0.7c1,1,1.9,2,2.9,3c-2.3,3.4-5.3,5.9-9.1,7.5
			c-1,0.4-2.3,0.7-3.3-0.2c-1.1-1-0.2-1.8,0.3-2.6c1.6-2.1-0.5-2.4-1.5-3.3c-1.4-1.3-2.9-1-3.7,0.6c-1.7,2.9-4.6,3.6-7.5,4.5
			c-1.5-2.3,0.6-3.6,1.3-5.3C91.9,40.6,94.8,38.3,93.7,34.8z"/>
		<path class="st8" d="M51,31.1c-1.2,2.5-2.4,5-3.5,7.6c-1.9-1.5-3.6,0.8-5.4,0.3c0.7-2,1.3-4,2-6.1C46.3,32.3,48.7,31.7,51,31.1z"
			/>
		<path class="st9" d="M179.5,49.5c-1.6,0-1.8-1.1-1.8-2.4c-0.1-4.3,9-13.2,13.1-12.8c1.5,0.1,2.9,0.9,2,2.5
			c-2.9,5.3-6.4,10-12.3,12.4C180.1,49.3,179.8,49.4,179.5,49.5z"/>
		<path class="st10" d="M156.6,43.2c2.6-3.4,4.6-6.2,7.8-7.8c0.9-0.5,2-0.8,2.7,0c0.9,0.9,0,1.8-0.6,2.5
			C164.3,40.8,161.3,42.6,156.6,43.2z"/>
		<path class="st11" d="M82.9,32.8c1.6,0.1,3.3,0.2,4.9,0.3c-2.9,2.7-5.8,5.5-9.8,9.2C79.6,38.1,80.9,35.3,82.9,32.8z"/>
		<path class="st12" d="M54.2,36c2.7,0.2,5.4-2.3,8.2-0.2c-3.5,3.5-7,7-10.5,10.5c-0.7,0.7-1.6,1.1-3.4,2.3
			C49.6,43.2,52.3,39.7,54.2,36z"/>
	</g>
</g>
</svg>
