<?xml version="1.0" encoding="utf-8"?>
<!-- Generator: Adobe Illustrator 26.0.1, SVG Export Plug-In . SVG Version: 6.00 Build 0)  -->
<svg version="1.1" id="Layer_1" xmlns="http://www.w3.org/2000/svg" xmlns:xlink="http://www.w3.org/1999/xlink" x="0px" y="0px"
	 viewBox="0 0 1625.7 372.6" style="enable-background:new 0 0 1625.7 372.6;" xml:space="preserve">
<style type="text/css">
	.st0{fill-opacity:0;}
	.st1{fill:#4B93BF;}
	.st2{fill:#4B93BF;}
</style>
<rect y="0" class="st0" width="1591.4" height="372.6"/>
<g transform="translate(-31.50001678467106 -21.500033569338058) scale(1.1000000000000099)">
	<g>
		<g transform="scale(0.14437513982505876) translate(857.0708216050092 1189.1759820825912)">
			<path id="color_x5F_2_17_" class="st1" d="M1527-787.8c0,215.2-174.6,483.2-352.5,633.1c-144.5,127.5-318,234-477.4,333.2
				C365.8,385-1.7,603.7-172.8,903.7c112,171.2,242.2,285.4,362.7,285.4c147.4,0,76.7-642.9,271.3-642.9S614.5,1189,785.5,1189
				c130.1,0,287.4-491,355.3-957.1c-142.9,97.7-350,198.4-458.4,247.2C1198.1,52.7,1628.5-462.9,1527-787.8z"/>
			<path id="color_x5F_1_19_" class="st1" d="M136.2,218c-266.9,150.8-399.9,296.8-450.1,416.8c-51.4,104.2-10.8,221.9,38,254.4
				c-138.1,40.6-328.9-24.4-328.9-235.5c0-219.3,259.9-552.2,641.5-657.8c-150.2-24.4-337,73.1-480.5,178.8
				c-9.9-68.2-15.2-135.5-15.2-200.6c0-312.6,109.4-601.6,392.5-601.6c220.9,0,480.4,271.3,739.9,165.1
				c-153.3-17.7-306.7-82.6-371.6-118c247.7,0,348-106.2,524.9-106.2c100.4,0,198.8,45.6,265.2,150.7
				c386.3-276.4,158.9-601.3-413.6-349.5c203-169.1,739-276.1,739,4.1C1417.3-458.9,449.3,41.1,136.2,218z"/>
		</g>
		<path class="st2" d="M406,257.9L406,257.9v-11.4c0-3.1,1.1-5.7,3.2-7.8c2.2-2.1,4.8-3.2,7.9-3.2l0,0h9.3l22.1-90.1
			c7.7-31.3,33.5-46.9,77.4-46.9l0,0h64.3c3.1,0,5.7,1.1,7.9,3.2c2.2,2.2,3.3,4.8,3.3,7.8l0,0v148.7c0,3.1-1.1,5.7-3.3,7.8
			c-2.2,2.1-4.8,3.2-7.9,3.2l0,0H417.1c-3.1,0-5.7-1.1-7.9-3.3C407.1,263.6,406,261,406,257.9z M492.3,155.5l-20,79.9h84.4V132
			h-35.6c-7.5,0-13.7,2.1-18.7,6.2C497.5,142.4,494.1,148.1,492.3,155.5L492.3,155.5z M633.2,261.8L633.2,261.8V146
			c0-2.2,0.7-3.9,2.1-5.3c1.4-1.4,3.1-2.1,5.2-2.1l0,0h24.9c2.1,0,3.9,0.7,5.3,2.1c1.4,1.4,2.1,3.1,2.1,5.3l0,0v78.2l41.9-77
			c1.3-2.5,3.2-4.5,5.8-6.1s5.2-2.4,7.6-2.4l0,0h33.3c2.1,0,3.9,0.7,5.3,2.1c1.4,1.4,2.1,3.1,2.1,5.3l0,0v115.8
			c0,2.2-0.7,3.9-2.1,5.3c-1.4,1.3-3.2,2-5.3,2l0,0h-24.9c-2.2,0-3.9-0.7-5.3-2.1c-1.3-1.4-2-3.1-2-5.2l0,0v-78.1l-41.9,76.8
			c-1.3,2.3-3.2,4.3-5.8,6c-2.6,1.7-5.2,2.6-7.6,2.6l0,0h-33.4c-2.2,0-3.9-0.7-5.3-2C633.9,265.7,633.2,264,633.2,261.8z M798,261.8
			L798,261.8V146c0-2.2,0.7-3.9,2.1-5.3c1.4-1.4,3.1-2.1,5.2-2.1l0,0h120c2.1,0,3.9,0.7,5.2,2.1c1.3,1.4,2,3.1,2,5.3l0,0v115.8
			c0,2.2-0.7,3.9-2,5.3c-1.3,1.3-3.1,2-5.2,2l0,0h-26.6c-2.1,0-3.9-0.7-5.3-2.1c-1.4-1.4-2.1-3.1-2.1-5.2l0,0v-94.4h-52.2v94.4
			c0,2.2-0.7,3.9-2.1,5.3c-1.4,1.3-3.1,2-5.2,2l0,0h-26.7c-2.2,0-3.9-0.7-5.3-2C798.6,265.7,798,264,798,261.8z M961.8,261.8
			L961.8,261.8V146c0-2.2,0.7-3.9,2.1-5.3c1.4-1.4,3.1-2.1,5.2-2.1l0,0h41c4.7,0,8.2,2.9,10.7,8.8l0,0l29.1,71l29-71
			c2.5-5.9,6-8.8,10.7-8.8l0,0h41c2.2,0,3.9,0.7,5.3,2.1c1.4,1.4,2.1,3.1,2.1,5.3l0,0v115.8c0,2.2-0.7,3.9-2.1,5.3
			c-1.4,1.3-3.1,2-5.3,2l0,0h-25.8c-2.1,0-3.9-0.7-5.2-2.1c-1.3-1.4-2-3.1-2-5.2l0,0v-74.4l-30.5,73.3c-2.5,5.6-6.2,8.3-11.3,8.3
			l0,0h-11.7c-5,0-8.7-2.8-11.2-8.3l0,0l-30.5-73.3v74.4c0,2.2-0.7,3.9-2.1,5.3c-1.4,1.3-3.2,2-5.3,2l0,0h-25.8
			c-2.2,0-3.9-0.7-5.3-2C962.5,265.7,961.8,264,961.8,261.8z M1178,254.1c-12.2-11.6-18.3-28.3-18.3-50.1s6.1-38.5,18.4-50.2
			c12.3-11.7,29.4-17.5,51.2-17.5s38.8,5.7,51.1,17.1c12.2,11.4,18.3,27.7,18.3,49l0,0v6.8c0,2.1-0.7,3.9-2.1,5.3
			c-1.4,1.4-3.1,2.1-5.3,2.1l0,0h-89.6c0.8,9.8,3.6,16.9,8.4,21.3c4.8,4.4,12.5,6.7,23,6.7c10.6,0,17.8-2.4,21.7-7.1
			c3.9-4.8,8.7-7.2,14.4-7.3l0,0h17.8c2.1,0,3.9,0.7,5.3,2.1c1.4,1.4,2.1,3.1,2.1,5.3l0,0c0,22.8-21.7,34.1-65.1,34.1l0,0
			C1207.3,271.5,1190.2,265.7,1178,254.1z M1201.4,191.3L1201.4,191.3h55.4c-0.8-18.7-10-28.1-27.6-28.1
			C1211.6,163.2,1202.4,172.6,1201.4,191.3z M1304.8,261.8L1304.8,261.8v-14.1c0-2.2,0.7-3.9,2.1-5.3c1.4-1.4,3.2-2.1,5.3-2.1l0,0
			h9.3l16.3-65.6c6-24.1,25.9-36.1,59.8-36.1l0,0h54c2.2,0,3.9,0.7,5.3,2.1c1.4,1.4,2.1,3.1,2.1,5.3l0,0v115.8
			c0,2.1-0.7,3.8-2.1,5.2c-1.4,1.4-3.1,2.1-5.3,2.1l0,0h-139.4c-2.1,0-3.9-0.7-5.3-2.1C1305.5,265.6,1304.8,263.9,1304.8,261.8z
			 M1374.3,184.9l-13.9,55.4h57.4v-72.9h-21.6C1384.7,167.4,1377.4,173.2,1374.3,184.9L1374.3,184.9z"/>
	</g>
</g>
</svg>
