<svg width="404" height="183" viewBox="0 0 404 183" fill="none" xmlns="http://www.w3.org/2000/svg">
<path d="M7.6001 121.2V98H5.1001V131.7H7.6001L28.2001 105.3V131.7H30.7001V98H26.4001L7.6001 121.2Z" fill="black"/>
<path d="M54.6001 113.3H41.2001V98H35.1001V131.7H41.2001V115.8H54.6001V131.7H60.7001V98H54.6001V113.3Z" fill="black"/>
<path d="M123.6 102.7C120.5 99.2 116.5 97.4 111.5 97.4C106.5 97.4 102.5 99.1 99.4001 102.7C96.5001 105.9 95.1001 109.8 95.1001 114.4V115V115.7C95.1001 120.3 96.5001 124.2 99.4001 127.4C102.5 130.9 106.5 132.7 111.5 132.7C116.5 132.7 120.6 131 123.7 127.4C126.6 124.2 128 120.3 128 115.7V115V114.4C128 109.9 126.5 105.9 123.6 102.7ZM120 125.1C118.3 128.6 115.5 130.4 111.5 130.4C107.5 130.4 104.7 128.6 103 125.1C101.8 122.6 101.2 119.3 101.2 115.1C101.2 111.1 101.8 107.7 103.1 105.2C104.8 101.6 107.6 99.9 111.5 99.9C114.5 99.9 117 101 118.7 103.1C120.8 105.8 121.9 109.7 121.9 115.1C121.8 119.2 121.2 122.5 120 125.1Z" fill="black"/>
<path d="M84.5001 113.3H71.2001V98H65.1001V131.7H71.2001V115.8H84.5001V131.7H90.7001V98H84.5001V113.3Z" fill="black"/>
<path d="M205.3 132H211.4V100.7H224.8V132H230.9V98.3H205.3V132Z" fill="#008868"/>
<path d="M185.1 122.2L176 98.3H169.3V132H171.7V105L183.3 132.5L194.8 103.8V132H200.8V98.3H194.8L185.1 122.2Z" fill="#008868"/>
<path d="M141.6 121.5V98.3H139.2V132H141.6L162.3 105.6V132H164.8V98.3H160.4L141.6 121.5Z" fill="#008868"/>
<path d="M235.2 132H238.3L247.3 109.3L256.4 132H263.1L249.1 98.3L235.2 132Z" fill="#008868"/>
<path d="M279.4 102.7L267.3 132H270.4L273.4 124H279.4H284.9L288.6 132H295.3L281.3 98.3L279.4 102.7ZM279.4 121.5H274.6L279.4 109.3L284.3 121.5H279.4Z" fill="#008868"/>
<path d="M319 98.3V113.6H305.7V98.3H299.5V132H305.7V116H319V132H325.2V98.3H319Z" fill="#008868"/>
<path fill-rule="evenodd" clip-rule="evenodd" d="M305.9 38.9001C304.1 43.1001 305.5 45.8001 305.4 47.5001C304.9 53.0001 295.2 52.7001 296.4 63.7001C297.6 68.5001 301.6 69.7001 305.1 70.8001C313.2 73.4001 325.9 68.1001 329.3 66.1001C323.3 66.0001 301.6 72.4001 304.2 60.2001C305.6 56.0001 310.9 55.2001 311 50.4001C311.1 44.5001 307.4 42.1001 311.7 40.5001C317.1 38.4001 326.3 48.1001 333 46.4001C325.5 45.9001 312.7 28.2001 305.9 38.9001Z" fill="#2F9174"/>
<path fill-rule="evenodd" clip-rule="evenodd" d="M360.3 13.8C355.8 12.9 350.6 16.2 346.8 16.2C339.8 16.1 339.9 10.9 331 13.5C326.8 15.2 325.7 18.2 325.5 21.5C325.2 28.9 334 39.2 336.4 41.9C335.6 36.6 323.2 18.3 335.5 18.7C339.9 19.3 341.5 21.8 346.2 21.9C352 22 355.8 17.7 358.9 20.1C364.5 24.5 354.2 36.4 356.3 42C356.8 35.3 374.8 17.8 360.3 13.8Z" fill="#2F9174"/>
<path fill-rule="evenodd" clip-rule="evenodd" d="M385.7 47.6001C385.5 45.9001 386.9 43.4001 385.2 39.2001C378.5 29.0001 366.2 46.1001 359 46.5001C365.4 48.1001 374.4 38.8001 379.6 40.8001C383.8 42.4001 380 44.9001 380.1 50.6001C380.1 55.3001 385.9 55.8001 387.2 59.9001C389.8 71.7001 368.3 65.4001 362.5 65.7001C365.8 67.6001 378.1 72.7001 385.9 70.2001C389.4 69.1001 392.5 68.2001 394.3 63.6001C395.1 52.8001 386.2 53.0001 385.7 47.6001Z" fill="#2F9174"/>
<path fill-rule="evenodd" clip-rule="evenodd" d="M355.7 44.5L336.3 44.4L334 48.5H357.7L355.7 44.5Z" fill="url(#paint0_linear_851_946)"/>
<path d="M354.8 70.7999C354.7 70.6999 354.4 70.7999 354.2 70.7999L346.3 71.9999L338.2 73.1C337.3 73.2 336.6 74.5 336.6 76.1C336.6 77.6 337.8 78.9 338.3 79.1C338.4 79.1 338.6 79.2 338.8 79.1L346.4 77.9999L354.5 76.7999L354.8 76.6C355.3 76.5 355.7 75.1999 355.7 73.7999C355.6 72.1999 355.3 70.9999 354.8 70.7999Z" fill="url(#paint1_linear_851_946)"/>
<path d="M338.9 80.4C339 80.9 339.4 81.6 340.3 81.6H346.2H351.4C352.6 81.3 353.3 80.1 353.5 78.1L346.2 79.3L338.9 80.4Z" fill="url(#paint2_linear_851_946)"/>
<path d="M356.4 56.3999C356.3 56.3999 356.3 56.3999 356.3 56.3999C356.2 56.3999 356.2 56.3999 356.1 56.4999L346.3 57.8999L336.1 59.3999C335.2 59.4999 334.5 60.6999 334.5 62.2999C334.5 63.8999 335.7 65.1999 336.2 65.1999C336.3 65.1999 336.4 65.1999 336.5 65.1999L346.3 63.7999L356.2 62.3999L356.4 62.2999C356.9 62.0999 357.3 60.8999 357.3 59.3999C357.3 57.8999 356.9 56.5999 356.4 56.3999Z" fill="url(#paint3_linear_851_946)"/>
<path d="M357.4 49.2C357.2 49.1 356.8 49.0999 356.6 49.2999L346.3 50.7L335.9 52.1L335.5 52.2999C334.6 52.3999 334.1 53.6 334.1 55.2C334.1 56.8 334.8 58.1 335.8 58.1C335.9 58.1 336.1 58.2 336.2 58.2L346.2 56.7L357 55.1L357.3 55C357.8 54.8 358.2 53.6 358.2 52.1C358.2 50.6 357.9 49.4 357.4 49.2Z" fill="url(#paint4_linear_851_946)"/>
<path d="M355.3 63.6C355.2 63.5 355.2 63.5 355.2 63.5C355.2 63.5 355.1 63.5 355 63.6L346.4 64.9L337 66.2C336.1 66.3 335.4 67.6 335.4 69.2C335.4 70.7 336.6 72 337.1 72.2C337.2 72.2 337.5 72.3 337.6 72.2L346.4 70.9L355.1 69.6L355.4 69.4C355.9 69.2 356.3 68 356.3 66.5C356.1 64.9 355.8 63.7 355.3 63.6Z" fill="url(#paint5_linear_851_946)"/>
<path fill-rule="evenodd" clip-rule="evenodd" d="M334.2 49.1L334.5 50.6L349.7 49.1H334.2Z" fill="url(#paint6_linear_851_946)"/>
<path fill-rule="evenodd" clip-rule="evenodd" d="M376.9 90.8L376.7 85.8H312.3L312.6 90.8H339.4V91.0001H339.7L339.8 130.2C339 139.6 338.3 143.4 334 148.9C326.4 158.8 313 166.3 302.8 168.5L285.4 151.4C288.3 152 294.2 154.8 298.9 155.8C314.9 159.3 319.8 154.6 324 149C314.1 146.8 299.5 144.7 284.7 143.3C282 143 279.2 142.8 276.6 142.6C274.5 142.5 272.5 142.3 270.4 142.2C267.4 142.1 264.6 141.9 261.8 141.8C259.6 141.7 257.5 141.7 255.5 141.7C252.6 141.7 249.9 141.8 247.3 141.8C246.7 141.8 246.1 141.9 245.6 141.9C244.2 142 242.9 142 241.6 142.1C236.1 142.4 231.1 142.7 226.3 143.3C174.5 148.8 158.9 166.3 128.6 172L143.4 154.1C148.5 155.7 153.4 157.3 158.1 159.4L172.9 153.6C157.2 149.1 142 145.9 127.5 143.8C125.1 143.5 122.8 143.2 120.5 142.9C118.4 142.6 116.3 142.4 114.2 142.2C111.2 141.9 108.2 141.7 105.3 141.5C103.5 141.4 101.8 141.4 99.9999 141.2C94.3999 141 88.7999 140.9 83.3999 141.1C80.9999 141.1 78.6999 141.2 76.3999 141.3C72.9999 141.5 69.5999 141.7 66.1999 142C45.7999 143.9 26.9999 148.4 9.7999 155.1C4.7999 157 3.3999 158.5 0.399902 159.8L7.1999 163.5C15.6999 165.4 20.2999 165.1 28.2999 160.7C35.5999 156.7 42.5999 153.2 52.0999 150.9L59.9999 167.5C55.2999 165.7 42.2999 162.2 36.4999 159.8C30.0999 162 27.6999 165 21.7999 167.6L37.6999 173.4C45.6999 175.6 54.3999 177.8 66.1999 179.4C69.3999 179.8 72.7999 180.2 76.3999 180.5C78.5999 180.7 80.8999 180.9 83.3999 181C88.3999 181.4 93.9999 181.5 99.9999 181.6C100.6 181.6 101.3 181.6 101.9 181.6C103.1 181.6 104.2 181.6 105.3 181.6C108.5 181.5 111.4 181.4 114.2 181.2C116.4 181 118.5 180.8 120.5 180.5C122.9 180.1 125.3 179.7 127.5 179.3C156.6 173.1 171.5 156.8 217.6 151.1L216.1 169.5C208.2 168.7 187.9 161.8 186.4 160.8C179.6 163.7 178 163.5 172 165.9C186.1 170.7 204.8 176.1 226.3 179.4C231.3 180.1 236.4 180.8 241.6 181.3C243.5 181.5 245.3 181.7 247.3 181.8C250 182 252.7 182.2 255.5 182.2C257.6 182.3 259.7 182.4 261.8 182.4C264.7 182.5 267.6 182.4 270.4 182.4C271.5 182.3 272.5 182.3 273.5 182.3C274.5 182.2 275.5 182.2 276.6 182.2C279.1 182.1 281.9 181.8 284.7 181.5C311.6 178.2 350.2 165.2 351.8 129L351.7 90.7001H376.9V90.8ZM76.0999 171.6C71.8999 170.7 69.2999 170.4 65.8999 169.3C65.4999 169.2 65.2999 169.1 64.7999 168.9L55.4999 150.3H55.3999C58.8999 149.6 62.2999 148.9 65.8999 148.5C67.3999 148.3 68.8999 148.1 70.3999 147.9L75.9999 170.2L76.3999 171.6C76.2999 171.6 76.2999 171.6 76.0999 171.6ZM88.1999 172.6C86.4999 172.4 84.6999 172.5 83.0999 172.4C82.1999 172.4 81.1999 172.3 80.3999 172.2L76.1999 149.3L75.7999 147.4C75.8999 147.4 75.9999 147.4 76.1999 147.3C78.4999 147.2 80.7999 147 83.1999 146.9C85.5999 146.8 88.0999 146.8 90.4999 146.8L88.1999 172.6ZM99.6999 171.8L99.0999 173.6C96.6999 173.5 94.2999 173.3 91.9999 173L94.6999 146.9C96.3999 146.9 98.0999 147 99.6999 147C101.5 147.1 103.3 147.2 105 147.4C105.8 147.5 106.6 147.5 107.4 147.6L105 155L99.6999 171.8ZM110.9 173.9C108.9 174 106.9 173.9 105.1 173.9C104.3 173.8 103.5 173.8 102.8 173.8L105.1 166.8L111.5 147.9C112.4 148 113.2 148.1 114 148.2C116.1 148.5 118.2 148.8 120.3 149.1C122 149.3 123.5 149.6 125.1 149.9L120.3 157.9L114 168.6L110.9 173.9ZM122.4 173.1C121.7 173.2 121 173.2 120.3 173.3C118.8 173.5 117.1 173.7 115.5 173.7L120.3 165.6L127.3 153.9L129.2 150.7C132.6 151.3 135.8 152.1 139.1 153L127.4 167.1L122.4 173.1ZM226.2 171.2C224.1 170.9 222 170.6 219.7 170.3L221.4 150.6C223.3 150.4 224.7 150.2 226.2 150C227.4 149.8 228.7 149.6 230.3 149.6L232.7 172.1C230.6 171.8 228.4 171.5 226.2 171.2ZM247.2 173.6C245.4 173.5 243.5 173.2 241.5 173C240.1 172.9 238.8 172.7 237.3 172.6L234.3 149.3C236.4 149.2 239.3 148.9 241.5 148.8C241.6 148.8 241.8 148.8 241.9 148.8L247.2 168.2L248.7 173.7C248.2 173.8 247.7 173.7 247.2 173.6ZM261.7 174.7C259.7 174.6 257.6 174.6 255.4 174.4C254.5 174.3 253.7 174.3 252.9 174.2L247.2 154.1L245.7 148.7C246.1 148.7 246.6 148.7 247.2 148.7C249.6 148.6 252.9 148.5 254.8 148.6L255.4 150.1L261.7 166.4L265 174.8C264 174.7 262.9 174.7 261.7 174.7ZM276.6 174.2C274.7 174.5 272.7 174.8 270.4 174.8C270 174.8 269.7 174.8 269.2 174.8L261.7 156.7L258.4 148.6C259.7 148.7 260.7 148.7 261.7 148.7C262.9 148.7 264.1 148.6 265.7 148.8L270.3 155.7L276.5 164.8L282.3 173.4C280.3 173.6 278.4 173.9 276.6 174.2ZM289.2 172.7C288.3 172.8 287.5 172.9 286.6 173L284.7 170.2L276.6 157.9L270.8 149.1C272.5 149.3 274.5 149.5 276.6 149.7C277.4 149.8 278.2 149.9 279 150L284.8 155.8L298.7 169.8C295 170.7 290.8 172.6 289.2 172.7Z" fill="#575756"/>
<path d="M392.3 105.6C392.1 106.1 391.7 106.9 391.2 108C390.8 109.1 390.3 110.2 389.7 111.4C389.2 112.6 388.7 113.6 388.3 114.4C387.9 115.3 387 117 386.7 117.4L379.5 105.4L375.6 105.5H375.5C375.5 105.6 375.6 105.6 375.6 105.7C376 106.5 376.7 107.6 377.5 108.9C378.4 110.4 379.4 111.9 380.3 113.4C381.2 114.9 382.1 116.4 383 117.8C383.9 119.2 384.4 120.5 384.9 121.4C384.6 122 384.1 123 383.5 124.2C382.9 125.4 382.4 126.4 382 127.1L384.7 127.2C385.2 125.9 386.1 123.8 387.5 120.9C388.9 118.1 390.3 115.1 391.8 112.2C393.3 109.2 394.5 106.9 395.4 105.4H392.3V105.6Z" fill="#575756"/>
<path d="M374.1 106.9C372.9 106 371.4 105.6 369.3 105.6C369.2 105.6 369.2 105.6 369.1 105.6L361.9 105.7V127.4L366.1 127.3V117.8C367.3 117.8 368.3 117.7 369.3 117.6C370 117.5 370.7 117.4 371.2 117.2C372.6 116.8 373.8 116.1 374.6 115.1C375.1 114.5 375.5 113.6 375.7 112.6C375.8 112.1 375.8 111.5 375.8 110.9C375.8 110.4 375.7 109.9 375.7 109.5C375.4 108.4 374.8 107.6 374.1 106.9ZM371.8 114.3C371.4 115 370.6 115.6 369.6 115.8C369.5 115.9 369.4 115.9 369.2 115.9C368.3 116 366.7 116 366 116V107.3H369.2H369.5C370.3 107.3 371 107.7 371.6 108.5C372.2 109.3 372.5 110.3 372.5 111.5C372.5 112.6 372.2 113.5 371.8 114.3Z" fill="#575756"/>
<path d="M392.947 24.9603C398.61 22.6143 401.3 16.121 398.954 10.4571C396.608 4.79328 390.114 2.10369 384.451 4.44978C378.787 6.79587 376.097 13.2892 378.443 18.953C380.789 24.6169 387.283 27.3064 392.947 24.9603Z" stroke="#575756" stroke-width="0.5" stroke-miterlimit="10"/>
<path d="M392.3 18.6H390.4C389.9 17.1 389.5 16.2 389.3 15.8C389 15.4 388.6 15.3 388 15.3C387.8 15.3 387.5 15.3 387.3 15.3C387.3 16.4 387.3 17.5 387.4 18.6H385.6C385.7 17.3 385.7 15.9 385.7 14.3C385.7 12.8 385.7 11.4 385.6 10.4H386.7C386.8 10.4 387.1 10.4 387.5 10.4C387.9 10.4 388.3 10.4 388.6 10.4C390.5 10.4 391.5 11.1 391.5 12.4C391.5 13.5 390.9 14.2 389.8 14.6V14.7C390.2 14.8 390.6 15.2 390.9 15.7C391.3 16.1 391.8 17.1 392.3 18.6ZM389.9 12.8C389.9 12 389.4 11.5 388.3 11.5C387.9 11.5 387.6 11.5 387.2 11.6C387.2 12.3 387.3 13.1 387.3 14.2C387.5 14.2 387.7 14.2 387.9 14.2C389.2 14.2 389.9 13.7 389.9 12.8Z" fill="#575756"/>
<defs>
<linearGradient id="paint0_linear_851_946" x1="334" y1="46.46" x2="357.688" y2="46.46" gradientUnits="userSpaceOnUse">
<stop stop-color="#AAAAA9"/>
<stop offset="0.48" stop-color="#DCDCDC"/>
<stop offset="1" stop-color="#AAAAA9"/>
</linearGradient>
<linearGradient id="paint1_linear_851_946" x1="334" y1="74.8999" x2="358.104" y2="74.8999" gradientUnits="userSpaceOnUse">
<stop stop-color="#646363"/>
<stop offset="0.49" stop-color="#8A8989"/>
<stop offset="1" stop-color="#646363"/>
</linearGradient>
<linearGradient id="paint2_linear_851_946" x1="334" y1="79.868" x2="358.104" y2="79.868" gradientUnits="userSpaceOnUse">
<stop stop-color="#646363"/>
<stop offset="0.49" stop-color="#8A8989"/>
<stop offset="1" stop-color="#646363"/>
</linearGradient>
<linearGradient id="paint3_linear_851_946" x1="334" y1="60.8239" x2="358.104" y2="60.8239" gradientUnits="userSpaceOnUse">
<stop stop-color="#646363"/>
<stop offset="0.49" stop-color="#8A8989"/>
<stop offset="1" stop-color="#646363"/>
</linearGradient>
<linearGradient id="paint4_linear_851_946" x1="334" y1="53.6364" x2="358.104" y2="53.6364" gradientUnits="userSpaceOnUse">
<stop stop-color="#646363"/>
<stop offset="0.49" stop-color="#8A8989"/>
<stop offset="1" stop-color="#646363"/>
</linearGradient>
<linearGradient id="paint5_linear_851_946" x1="334" y1="67.804" x2="358.104" y2="67.804" gradientUnits="userSpaceOnUse">
<stop stop-color="#646363"/>
<stop offset="0.49" stop-color="#8A8989"/>
<stop offset="1" stop-color="#646363"/>
</linearGradient>
<linearGradient id="paint6_linear_851_946" x1="334" y1="49.844" x2="349.498" y2="49.844" gradientUnits="userSpaceOnUse">
<stop stop-color="#686867"/>
<stop offset="1" stop-color="#B9B8B8"/>
</linearGradient>
</defs>
</svg>
