<?xml version="1.0" encoding="UTF-8" standalone="no"?>
<svg
   xmlns:dc="http://purl.org/dc/elements/1.1/"
   xmlns:cc="http://creativecommons.org/ns#"
   xmlns:rdf="http://www.w3.org/1999/02/22-rdf-syntax-ns#"
   xmlns:svg="http://www.w3.org/2000/svg"
   xmlns="http://www.w3.org/2000/svg"
   xmlns:sodipodi="http://sodipodi.sourceforge.net/DTD/sodipodi-0.dtd"
   xmlns:inkscape="http://www.inkscape.org/namespaces/inkscape"
   viewBox="0 0 480 113.302"
   id="svg43"
   height="113.302"
   width="480"
   version="1.1"
   sodipodi:docname="logo.svg"
   inkscape:version="0.92.1 r15371">
  <sodipodi:namedview
     pagecolor="#ffffff"
     bordercolor="#666666"
     borderopacity="1"
     objecttolerance="10"
     gridtolerance="10"
     guidetolerance="10"
     inkscape:pageopacity="0"
     inkscape:pageshadow="2"
     inkscape:window-width="1440"
     inkscape:window-height="838"
     id="namedview26"
     showgrid="false"
     inkscape:zoom="1.2079743"
     inkscape:cx="203.4021"
     inkscape:cy="64.927968"
     inkscape:window-x="-8"
     inkscape:window-y="-8"
     inkscape:window-maximized="1"
     inkscape:current-layer="svg43" />
  <metadata
     id="metadata49">
    <rdf:RDF>
      <cc:Work
         rdf:about="">
        <dc:format>image/svg+xml</dc:format>
        <dc:type
           rdf:resource="http://purl.org/dc/dcmitype/StillImage" />
        <dc:title></dc:title>
      </cc:Work>
    </rdf:RDF>
  </metadata>
  <defs
     id="defs47" />
  <g
     id="Layer1000"
     transform="matrix(1.2003831,0,0,1.2003831,-48.091704,-87.394731)">
    <path
       id="path2"
       style="fill:#8fc031;fill-rule:evenodd"
       d="m 94.4508,93.3024 h 18.8422 l 7.1772,28.1287 7.1992,-28.1287 h 18.7561 v 46.2283 H 134.7391 V 104.289 l -9.0175,35.2417 h -10.5887 l -8.996,-35.2417 v 35.2417 H 94.4508 Z m 61.0674,0 h 38.2224 v 9.8784 h -23.8887 v 7.3604 h 22.1455 v 9.4265 h -22.1455 v 9.1036 h 24.599 v 10.4594 h -38.9327 z m 95.1147,56.3004 h -11.4924 v -10.0721 h -29.5062 v 10.0721 H 198.142 v -20.7252 h 4.767 c 2.6795,-7.4679 4.0136,-15.8829 4.0136,-25.2663 V 93.3024 h 38.7387 v 35.5752 h 4.9716 z m -19.2401,-20.7252 v -24.2117 h -11.4927 v 0.6024 c 0,6.3811 -1.076,14.2581 -3.2389,23.6093 z m 21.6184,-35.5752 h 43.4518 v 11.4279 h -14.5915 v 34.8004 h -14.2689 v -34.8004 h -14.5914 z m 49.8545,0 h 38.2224 v 9.8784 h -23.8888 v 7.3604 h 22.1456 v 9.4265 h -22.1456 v 9.1036 h 24.5991 v 10.4594 h -38.9327 z m 77.4241,27.3108 12.5253,3.7772 c -0.8392,3.5079 -2.1628,6.4455 -3.9814,8.7915 -1.8077,2.3566 -4.0458,4.132 -6.7362,5.3264 -2.6795,1.1947 -6.0906,1.7972 -10.2335,1.7972 -5.036,0 -9.1358,-0.7317 -12.3319,-2.1846 -3.185,-1.4634 -5.9292,-4.0353 -8.2427,-7.7046 -2.3135,-3.6693 -3.4756,-8.3828 -3.4756,-14.1074 0,-7.6402 2.0336,-13.5155 6.1012,-17.6261 4.0784,-4.0998 9.8352,-6.1551 17.2818,-6.1551 5.8216,0 10.4058,1.173 13.7417,3.5295 3.325,2.3566 5.8108,5.9723 7.4248,10.8577 l -12.5901,2.787 c -0.4413,-1.3989 -0.904,-2.4213 -1.3881,-3.0668 -0.807,-1.0869 -1.7863,-1.9261 -2.9376,-2.5072 -1.1622,-0.5919 -2.4536,-0.8826 -3.8847,-0.8826 -3.2497,0 -5.7355,1.3022 -7.4574,3.8955 -1.3019,1.9261 -1.9583,4.9608 -1.9583,9.0819 0,5.1222 0.7748,8.6195 2.3352,10.5243 1.56,1.8938 3.7446,2.8409 6.5638,2.8409 2.7335,0 4.7993,-0.7643 6.1982,-2.3029 1.399,-1.5282 2.4105,-3.7555 3.0455,-6.6718 z m 16.195,-27.3108 h 43.4518 v 11.4279 h -14.5915 v 34.8004 h -14.2689 v -34.8004 h -14.5914 z"
       inkscape:connector-curvature="0" />
    <path
       id="path4"
       style="fill:#8fc031;fill-rule:evenodd"
       d="m 40.063,118.9142 c 0.712,0.2587 17.1293,10.2634 18.5025,10.817 L 40.173,72.8057 Z"
       inkscape:connector-curvature="0" />
    <path
       id="path6"
       style="fill:#8fc031;fill-rule:evenodd"
       d="m 58.9807,129.9032 11.4686,-21.3114 0.0108,28.2443 4.5365,2.6076 0.0068,-46.0905 c -0.3432,0.3424 -15.1862,28.3938 -15.8825,30.033 z"
       inkscape:connector-curvature="0" />
    <path
       id="path8"
       style="fill:#e21e23;fill-rule:evenodd"
       d="m 59.6728,116.1838 5.8759,-11.094 c -0.2967,-0.3658 -11.0483,-6.7987 -11.7903,-7.03 0.3391,1.4439 5.7166,17.87 5.9144,18.124 z"
       inkscape:connector-curvature="0" />
    <path
       id="path10"
       style="fill:#8fc031;fill-rule:evenodd"
       d="M 41.4622,73.2872 71.9953,91.3558 71.22,92.8791 42.2276,75.6989 Z"
       inkscape:connector-curvature="0" />
    <path
       id="path12"
       style="fill:#8fc031;fill-rule:evenodd"
       d="m 439.9366,158.294 h -5.6293 v 8.7857 h -3.5958 v -11.6493 h 9.2251 z"
       inkscape:connector-curvature="0" />
    <path
       id="path14"
       style="fill:#8fc031;fill-rule:evenodd"
       d="m 405.751,155.3494 h 5.9874 c 1.3042,0 2.2805,0.3089 2.9313,0.93 0.648,0.6211 0.9734,1.5049 0.9734,2.6521 0,1.1767 -0.3552,2.0988 -1.063,2.7604 -0.7078,0.6644 -1.7898,0.9952 -3.2431,0.9952 h -1.9741 v 4.3115 h -3.6119 z m 3.6119,4.9784 h 0.8867 c 0.6996,0 1.1903,-0.1218 1.4723,-0.3634 0.2821,-0.2412 0.4232,-0.5504 0.4232,-0.9272 0,-0.3662 -0.1221,-0.6752 -0.3687,-0.93 -0.2441,-0.2551 -0.7053,-0.3824 -1.3831,-0.3824 h -1.0304 z"
       inkscape:connector-curvature="0" />
    <path
       id="path16"
       style="fill:#8fc031;fill-rule:evenodd"
       d="m 381.4213,155.3494 h 3.905 l 1.6188,4.7996 1.5863,-4.7996 h 3.6607 l -3.818,8.9971 c -0.3118,0.724 -0.5856,1.2665 -0.8189,1.6217 -0.2333,0.358 -0.5777,0.6509 -1.0358,0.8813 -0.4584,0.2305 -1.0874,0.3444 -1.8873,0.3444 -0.4232,0 -1.1526,-0.0598 -2.1858,-0.1817 v -2.4052 c 0.6103,0.0649 1.055,0.0975 1.3343,0.0975 0.8325,0 1.3396,-0.3092 1.5185,-0.93 z"
       inkscape:connector-curvature="0" />
    <path
       id="path18"
       style="fill:#8fc031;fill-rule:evenodd"
       d="m 361.1507,159.8397 h 1.9228 c 1.7625,0 3.0722,0.3118 3.9237,0.9329 0.8541,0.6236 1.2798,1.5917 1.2798,2.9041 0,1.0766 -0.3906,1.8984 -1.1715,2.4678 -0.7835,0.5695 -1.9035,0.8541 -3.3679,0.8541 h -6.1826 v -11.6492 h 9.811 v 2.3589 h -6.2153 z m 0,4.6534 h 1.8414 c 1.1254,0 1.6892,-0.4068 1.6892,-1.2229 0,-0.7132 -0.5638,-1.0712 -1.6892,-1.0712 h -1.8414 z"
       inkscape:connector-curvature="0" />
    <path
       id="path20"
       style="fill:#8fc031;fill-rule:evenodd"
       d="m 334.0796,155.3494 h 5.9873 c 1.3042,0 2.2805,0.3089 2.9313,0.93 0.648,0.6211 0.9734,1.5049 0.9734,2.6521 0,1.1767 -0.3551,2.0988 -1.063,2.7604 -0.7078,0.6644 -1.7897,0.9952 -3.2431,0.9952 h -1.974 v 4.3115 h -3.6119 z m 3.6119,4.9784 h 0.8867 c 0.6995,0 1.1902,-0.1218 1.4723,-0.3634 0.282,-0.2412 0.4232,-0.5504 0.4232,-0.9272 0,-0.3662 -0.1222,-0.6752 -0.3688,-0.93 -0.2441,-0.2551 -0.7053,-0.3824 -1.383,-0.3824 h -1.0304 z"
       inkscape:connector-curvature="0" />
    <path
       id="path22"
       style="fill:#8fc031;fill-rule:evenodd"
       d="m 310.2297,155.3494 h 9.6319 v 2.4891 h -6.02 v 1.8549 h 5.5806 v 2.3755 h -5.5806 v 2.2941 h 6.1988 v 2.6356 h -9.8107 z"
       inkscape:connector-curvature="0" />
    <path
       id="path24"
       style="fill:#8fc031;fill-rule:evenodd"
       d="m 285.7698,155.3494 h 10.9497 v 2.8797 h -3.6768 v 8.7695 h -3.5958 v -8.7695 h -3.6771 z"
       inkscape:connector-curvature="0" />
    <path
       id="path26"
       style="fill:#8fc031;fill-rule:evenodd"
       d="m 262.4489,155.3494 h 9.6319 v 2.4891 h -6.02 v 1.8549 h 5.5806 v 2.3755 h -5.5806 v 2.2941 h 6.1988 v 2.6356 h -9.8107 z"
       inkscape:connector-curvature="0" />
    <path
       id="path28"
       style="fill:#8fc031;fill-rule:evenodd"
       d="m 249.036,166.9986 h -3.5955 v -8.7857 h -3.9538 v 8.7857 h -3.5957 v -11.6492 h 11.145 z"
       inkscape:connector-curvature="0" />
    <path
       id="path30"
       style="fill:#8fc031;fill-rule:evenodd"
       d="m 217.2222,161.4994 h 4.7018 v 2.5055 h -4.7018 z"
       inkscape:connector-curvature="0" />
    <path
       id="path32"
       style="fill:#8fc031;fill-rule:evenodd"
       d="m 190.208,155.3494 h 10.9497 v 2.8797 h -3.6769 v 8.7695 h -3.5957 v -8.7695 h -3.6771 z"
       inkscape:connector-curvature="0" />
    <path
       id="path34"
       style="fill:#8fc031;fill-rule:evenodd"
       d="m 177.0881,166.9986 h -4.0538 l -1.4156,-2.999 c -0.328,-0.7132 -0.5828,-1.158 -0.7674,-1.3369 -0.1817,-0.1791 -0.4365,-0.2684 -0.7591,-0.2684 v 4.6043 h -3.5957 v -11.6492 h 3.5957 v 4.4742 c 0.3118,-0.0162 0.5559,-0.1276 0.7294,-0.3337 0.1763,-0.2061 0.4473,-0.7999 0.8189,-1.7787 0.2713,-0.724 0.5423,-1.2447 0.8189,-1.5594 0.2738,-0.3143 0.7214,-0.5394 1.3397,-0.6777 0.6208,-0.1384 1.5916,-0.2061 2.9148,-0.2061 v 2.4568 h -0.1817 c -0.6154,0 -1.0709,0.1165 -1.3665,0.3498 -0.2957,0.233 -0.5398,0.61 -0.7294,1.1333 -0.1925,0.5235 -0.396,0.9113 -0.6157,1.1687 -0.2197,0.2577 -0.5207,0.4637 -0.9003,0.6157 0.5179,0.1709 0.9709,0.4637 1.3558,0.8784 0.3878,0.4179 0.7974,1.0659 1.2311,1.9443 z"
       inkscape:connector-curvature="0" />
    <path
       id="path36"
       style="fill:#8fc031;fill-rule:evenodd"
       d="m 142.3291,155.3494 h 3.5958 v 4.0674 h 3.9373 v -4.0674 h 3.6119 v 11.6492 h -3.6119 v -4.7183 h -3.9373 v 4.7183 h -3.5958 z"
       inkscape:connector-curvature="0" />
    <path
       id="path38"
       style="fill:#8fc031;fill-rule:evenodd"
       d="m 126.0044,165.0787 h -4.0782 l -0.5856,1.9199 h -3.6746 l 4.3849,-11.6492 h 3.9402 l 4.3656,11.6492 h -3.7692 z m -0.762,-2.5217 -1.2716,-4.187 -1.2773,4.187 z"
       inkscape:connector-curvature="0" />
    <path
       id="path40"
       style="fill:#8fc031;fill-rule:evenodd"
       d="m 102.6344,162.2316 3.1564,0.9516 c -0.2114,0.8841 -0.5448,1.6245 -1.0032,2.2155 -0.4555,0.5939 -1.0196,1.0412 -1.6976,1.3422 -0.6752,0.3011 -1.5347,0.453 -2.5787,0.453 -1.2691,0 -2.3023,-0.1845 -3.1076,-0.5505 -0.8025,-0.3688 -1.4942,-1.0168 -2.077,-1.9417 -0.5831,-0.9247 -0.8759,-2.1124 -0.8759,-3.5549 0,-1.9253 0.5125,-3.4059 1.5375,-4.4416 1.0276,-1.0333 2.4784,-1.5512 4.3549,-1.5512 1.4669,0 2.622,0.2957 3.4628,0.8896 0.8379,0.5938 1.4644,1.5049 1.8711,2.736 l -3.1728,0.7024 c -0.1111,-0.3526 -0.2276,-0.6103 -0.3498,-0.773 -0.2032,-0.2739 -0.4501,-0.4853 -0.7401,-0.6319 -0.2931,-0.1491 -0.6185,-0.2222 -0.9791,-0.2222 -0.8189,0 -1.4454,0.328 -1.8791,0.9816 -0.3282,0.4853 -0.4935,1.2501 -0.4935,2.2887 0,1.2906 0.1953,2.1719 0.5885,2.6518 0.3932,0.4774 0.9437,0.7161 1.654,0.7161 0.6888,0 1.2096,-0.1925 1.5619,-0.5803 0.3526,-0.3852 0.6075,-0.9465 0.7673,-1.6812 z"
       inkscape:connector-curvature="0" />
  </g>
</svg>
